<svg width="726" height="144" viewBox="0 0 726 144" fill="none" xmlns="http://www.w3.org/2000/svg">
<g clip-path="url(#clip0_529_6)">
<path fill-rule="evenodd" clip-rule="evenodd" d="M14.2232 66.3485H24.1175C30.9199 66.3485 35.5579 65.0859 38.6499 62.5606C41.7419 60.0354 42.9787 56.2475 42.9787 51.197C42.9787 46.1465 41.4327 42.6742 38.0315 40.4646C34.9395 38.2551 29.9923 37.3081 23.4991 37.3081H14.2232V66.3485ZM14.2232 78.3434V114.013H0V24.6818H24.7359C35.8671 24.6818 44.2155 26.8914 49.7811 30.995C55.3467 35.4141 57.8203 41.7273 57.8203 50.5657C57.8203 61.6136 52.2547 69.5051 40.8143 74.2399L65.5503 113.697H49.4719L28.4463 78.3434H14.2232ZM86.5758 114.013H72.6618V46.4621H86.5758V114.013ZM71.7342 28.7854C71.7342 26.2601 72.3526 24.3662 73.8986 22.7879C75.1354 21.5253 77.2998 20.5783 79.7734 20.5783C82.247 20.5783 84.1022 21.2096 85.6482 22.7879C87.1942 24.3662 87.8126 26.2601 87.8126 28.7854C87.8126 31.3106 87.1942 33.2045 85.6482 34.4672C84.4114 35.7298 82.247 36.6768 79.7734 36.6768C77.2998 36.6768 75.1354 36.0455 73.8986 34.4672C72.3526 32.8889 71.7342 30.995 71.7342 28.7854ZM158.001 46.4621V54.3535L146.56 56.5631C147.488 58.1414 148.416 59.7197 149.034 61.9293C149.652 64.1389 149.962 66.3485 149.962 68.5581C149.962 75.5025 147.488 80.8687 142.85 84.9722C138.212 89.0758 131.719 90.9697 123.371 90.9697C121.515 90.9697 119.66 90.9697 117.496 90.3384C114.404 92.2323 112.858 94.4419 112.858 96.9672C112.858 98.5455 113.476 99.8081 115.022 100.439C116.568 101.071 119.042 101.702 122.752 101.702H134.193C141.613 101.702 147.179 103.28 150.889 106.437C154.6 109.593 156.455 114.328 156.455 120.01C156.455 127.586 153.363 133.583 147.179 137.687C140.995 141.79 132.028 144 120.279 144C111.312 144 104.509 142.422 99.5622 139.265C94.9242 136.109 92.4506 131.374 92.4506 125.376C92.4506 121.273 93.6874 117.801 96.161 114.96C98.6346 112.119 102.345 110.225 106.983 108.962C105.128 108.015 103.582 106.753 102.345 105.174C101.108 103.28 100.49 101.386 100.49 99.4924C100.49 96.9672 101.108 94.7576 102.654 93.1793C104.2 91.2854 106.055 89.7071 108.838 88.1288C105.437 86.5505 102.654 84.0253 100.49 80.8687C98.3254 77.3965 97.3978 73.6086 97.3978 68.8737C97.3978 61.6136 99.5622 55.9318 104.2 51.8283C108.838 47.7247 115.022 45.8308 123.68 45.8308C125.535 45.8308 127.39 45.8308 129.555 46.1465C131.719 46.4621 133.265 46.7778 134.193 47.0934L158.001 46.4621ZM106.055 124.429C106.055 127.586 107.292 129.795 110.075 131.689C112.858 133.268 116.568 134.215 121.515 134.215C129.245 134.215 134.811 132.952 138.521 130.742C142.232 128.533 144.087 125.692 144.087 121.904C144.087 119.063 143.159 116.854 140.995 115.591C139.449 114.328 135.429 113.697 129.864 113.697H119.351C115.331 113.697 112.239 114.644 109.766 116.538C107.292 118.747 106.055 121.273 106.055 124.429ZM112.239 68.2424C112.239 72.346 113.167 75.8182 115.331 78.0278C117.496 80.2374 120.588 81.5 124.607 81.5C132.647 81.5 136.666 77.0808 136.666 68.2424C136.666 63.8232 135.738 60.351 133.574 58.1414C131.41 55.6162 128.627 54.6692 124.298 54.6692C120.279 54.6692 117.187 55.9318 115.022 58.1414C113.167 60.351 112.239 63.8232 112.239 68.2424ZM227.88 114.013H213.657V72.6616C213.657 67.6111 212.729 63.5076 210.565 60.9823C208.71 58.4571 205.308 56.8788 200.98 56.8788C195.105 56.8788 190.776 58.7727 187.993 62.245C185.21 65.7172 183.974 72.0303 183.974 80.2374V113.697H170.06V19H183.974V42.9899C183.974 46.7778 183.664 50.8813 183.355 55.3005H184.283C186.138 52.1439 188.921 49.303 192.322 47.7247C195.723 45.8308 199.743 44.8838 204.381 44.8838C220.459 44.8838 228.498 53.0909 228.498 69.5051V114.013H227.88ZM271.168 103.596C274.569 103.596 277.97 102.965 281.371 102.018V112.75C279.825 113.381 277.661 114.013 275.497 114.644C273.023 114.96 270.549 115.275 267.767 115.275C254.471 115.275 247.669 108.015 247.669 93.8106V57.5101H238.702V51.197L248.287 45.8308L252.925 31.6263H261.583V46.7778H280.444V57.5101H261.583V93.495C261.583 96.9672 262.51 99.4924 264.056 101.071C266.221 102.965 268.385 103.596 271.168 103.596ZM480.187 114.013H465.963V72.6616C465.963 67.6111 465.036 63.5076 462.871 60.9823C460.707 58.4571 457.615 57.1944 452.977 57.1944C447.102 57.1944 442.773 59.0884 439.991 62.5606C437.208 66.0328 435.971 72.0303 435.971 80.553V114.328H422.057V46.4621H433.188L435.043 55.3005H435.662C437.517 52.1439 440.609 49.6187 444.01 47.7247C447.721 45.8308 451.74 45.1995 456.069 45.1995C471.838 45.1995 479.877 53.4066 479.877 69.8207V114.013H480.187ZM527.185 114.013H512.962V37.3081H487.298V24.6818H552.848V37.3081H527.185V114.013V114.013ZM587.788 45.1995C590.571 45.1995 593.044 45.5152 594.899 45.8308L593.663 59.0884C591.498 58.4571 589.643 58.4571 587.479 58.4571C581.913 58.4571 577.275 60.351 573.874 64.1389C570.473 67.9268 568.618 72.6616 568.618 78.6591V114.013H554.704V46.4621H565.835L567.69 58.4571H568.308C570.473 54.3535 573.256 51.197 576.966 48.9874C580.058 46.4621 583.768 45.1995 587.788 45.1995ZM629.221 115.275C619.017 115.275 610.978 112.119 605.103 106.121C599.228 100.124 596.445 91.601 596.445 80.8687C596.445 69.8207 599.228 61.298 604.485 54.9848C609.741 48.6717 617.162 45.5152 626.747 45.5152C635.405 45.5152 642.516 48.3561 647.463 53.7222C652.411 59.0884 655.193 66.6641 655.193 76.1338V84.0253H610.978C611.287 90.654 612.833 95.7045 616.234 99.1768C619.635 102.649 623.964 104.543 630.148 104.543C634.168 104.543 637.569 104.227 640.97 103.28C644.371 102.649 648.082 101.386 651.792 99.4924V110.54C648.391 112.119 644.99 113.381 641.279 114.013C637.878 114.96 633.859 115.275 629.221 115.275ZM626.747 56.2475C622.418 56.2475 618.708 57.8258 615.925 60.6667C613.142 63.5076 611.596 67.9268 610.978 73.2929H640.97C640.97 67.6111 639.424 63.5076 636.951 60.6667C634.477 57.8258 631.076 56.2475 626.747 56.2475ZM680.238 78.3434L688.278 68.2424L708.376 46.4621H724.454L697.863 75.5025L726 114.013H709.612L688.278 84.3409L680.548 90.654V113.697H666.634V19H680.548V65.4015L679.929 78.3434H680.238Z" fill="#CCCCCC"/>
<path d="M350.154 0C319.13 0 294 25.1982 294 56.0661C294 70.87 299.895 85.359 310.133 95.7533L349.843 143L396.69 87.2489C402.585 78.1145 405.997 67.4053 405.997 56.3811C406.307 25.1982 381.178 0 350.154 0ZM361.012 89.4537C361.633 91.9736 361.012 97.6432 361.012 98.9031C361.012 100.478 361.012 100.793 360.392 101.423C359.771 102.053 357.91 101.423 355.738 101.423C353.566 101.423 352.946 101.423 351.395 101.423L358.22 80.0044C358.22 80.0044 358.53 79.0595 358.84 78.4295C358.84 78.4295 359.461 79.0595 360.081 79.6894C361.012 80.6344 361.322 80.9493 361.322 80.9493C361.322 80.9493 361.322 81.5793 360.392 83.1542C359.771 85.044 360.081 86.9339 361.012 89.4537ZM360.702 64.2555C360.702 65.5154 360.392 65.8304 359.771 65.2004C359.151 64.5705 357.599 62.3656 356.979 61.1057C356.669 59.8458 357.289 56.0661 357.289 56.0661C357.289 56.0661 360.702 55.4361 361.633 56.0661C362.563 56.696 362.563 57.9559 362.563 57.9559C362.563 57.9559 361.012 62.9956 360.702 64.2555ZM357.289 77.4846L350.774 97.6432C350.774 97.6432 350.154 98.5881 349.223 99.533C348.292 100.478 347.362 98.5881 346.121 98.2731C344.88 97.9581 344.259 98.2731 342.708 99.2181C341.157 100.163 339.295 100.793 338.365 100.163C337.434 99.533 337.434 96.6982 337.434 96.6982C337.434 96.6982 337.744 94.1784 338.985 91.6586C339.916 89.1388 341.777 86.304 343.328 84.4141C344.88 82.8392 346.431 81.5793 348.603 80.0044C350.774 78.4295 352.636 72.1299 352.636 72.1299C352.636 72.1299 354.187 74.0198 355.428 74.9647L357.289 77.4846ZM385.211 78.4295L368.768 98.2731C367.217 97.0132 365.976 95.4383 365.976 94.4934C365.976 92.6035 366.596 77.7996 366.596 76.5396C366.596 75.5947 361.943 68.3502 361.943 68.3502C361.943 68.3502 365.045 57.9559 365.356 57.641C365.666 57.326 366.286 57.011 366.907 57.011C367.527 57.011 367.527 54.1762 367.837 53.5463C367.837 52.9163 367.527 52.2863 366.907 51.9714C366.286 51.6564 364.735 52.2863 363.804 52.9163C362.874 53.5462 360.392 52.9163 360.392 52.9163C360.392 52.9163 360.392 43.7819 360.392 43.467C360.392 43.152 358.84 41.2621 358.84 40.9471C359.151 40.6322 360.081 40.3172 361.012 40.6322C361.633 40.9471 362.563 40.6322 362.874 39.6872C363.184 38.7423 363.184 39.0573 363.494 38.4273C364.115 37.4824 364.425 36.5374 364.425 34.6476C364.425 32.7577 363.804 30.2379 361.943 29.6079C360.081 28.978 357.289 28.978 356.048 30.8678C354.807 32.7577 355.738 36.5374 354.807 36.8524C353.877 36.8524 354.187 38.1123 353.566 39.0573C352.946 40.0022 352.946 39.6872 352.015 39.6872C351.084 39.6872 351.395 37.7974 350.774 37.1674C350.154 36.5374 347.982 35.9075 346.431 36.2225C344.88 36.5374 342.398 37.1674 341.467 38.7423C340.536 40.0022 340.536 41.8921 341.157 42.837C341.777 43.467 341.467 45.0418 340.846 45.3568C339.916 45.9868 338.985 46.3018 338.054 47.2467C337.124 48.1916 335.883 50.3965 335.883 51.3414C335.883 52.2863 335.883 54.8062 335.572 56.0661C335.262 57.326 334.642 59.2159 334.642 60.7907C334.642 62.3656 334.642 60.7907 334.952 60.4758C335.262 60.1608 336.813 56.696 337.744 57.011C338.365 57.326 338.365 60.7907 338.365 61.7357C338.365 62.3656 339.605 62.3656 341.467 62.3656C343.018 62.3656 344.569 60.1608 344.569 60.1608C344.569 60.1608 344.569 62.0507 344.259 63.3106C343.949 64.5705 343.639 67.4053 343.328 70.2401C343.018 72.4449 343.328 76.8546 342.398 78.1145C341.467 79.0595 338.985 81.2643 338.054 83.1542C337.434 85.044 335.572 91.6586 335.572 92.6035C335.572 93.2335 333.711 97.3282 332.78 99.533L321.922 86.6189L321.611 86.304C313.855 78.4295 309.512 68.0352 309.512 57.011C309.512 34.0176 328.127 15.4339 351.084 15.4339C374.042 15.4339 392.657 34.0176 392.657 57.011C391.726 63.9405 389.554 71.815 385.211 78.4295Z" fill="#CCCCCC"/>
</g>
<defs>
<clipPath id="clip0_529_6">
<rect width="726" height="144" fill="white"/>
</clipPath>
</defs>
</svg>
